<?xml version="1.0" standalone="no"?>
<!DOCTYPE svg PUBLIC "-//W3C//DTD SVG 20010904//EN"
 "http://www.w3.org/TR/2001/REC-SVG-20010904/DTD/svg10.dtd">
<svg version="1.0" xmlns="http://www.w3.org/2000/svg"
 width="48.000000pt" height="34.000000pt" viewBox="0 0 48.000000 34.000000"
 preserveAspectRatio="xMidYMid meet">
<metadata>
Created by potrace 1.16, written by Peter Selinger 2001-2019
</metadata>
<g transform="translate(0.000000,34.000000) scale(0.100000,-0.100000)"
fill="#000000" stroke="none">
<path d="M7 333 c-4 -3 -7 -30 -7 -60 l0 -53 34 0 c21 0 36 6 40 15 6 17 42
20 51 5 15 -24 25 -6 25 45 l0 55 -68 0 c-38 0 -72 -3 -75 -7z"/>
<path d="M160 285 c0 -51 10 -69 25 -45 9 15 45 12 51 -5 5 -12 29 -15 126
-15 l119 0 -3 58 -3 57 -157 3 -158 3 0 -56z"/>
<path d="M2 103 l3 -98 73 -3 72 -3 0 86 c0 88 -7 103 -30 60 -7 -14 -17 -25
-22 -25 -12 0 -10 14 4 28 17 17 -29 51 -70 52 l-33 0 3 -97z"/>
<path d="M222 180 c-19 -16 -21 -23 -12 -40 6 -11 7 -20 2 -20 -5 0 -15 11
-22 25 -23 43 -30 28 -30 -60 l0 -86 158 3 157 3 3 98 3 97 -118 0 c-101 -1
-121 -3 -141 -20z"/>
</g>
</svg>
